<svg xmlns="http://www.w3.org/2000/svg" viewBox="0 0 1600 1000" role="img" aria-label="Premium modern country house">
  <defs>
    <linearGradient id="sky" x1="0" x2="1" y1="0" y2="1">
      <stop offset="0" stop-color="#263238"/>
      <stop offset="0.55" stop-color="#5c5143"/>
      <stop offset="1" stop-color="#c5a66a"/>
    </linearGradient>
    <linearGradient id="glass" x1="0" x2="1">
      <stop offset="0" stop-color="#dbe8ed"/>
      <stop offset="1" stop-color="#6f8a95"/>
    </linearGradient>
    <filter id="soft" x="-20%" y="-20%" width="140%" height="140%">
      <feDropShadow dx="0" dy="26" stdDeviation="24" flood-color="#000" flood-opacity=".35"/>
    </filter>
  </defs>
  <rect width="1600" height="1000" fill="url(#sky)"/>
  <circle cx="1270" cy="210" r="120" fill="#ead8a6" opacity=".82"/>
  <path d="M0 690 C260 600 470 660 690 610 C950 550 1140 600 1600 510 L1600 1000 L0 1000 Z" fill="#273a31"/>
  <path d="M0 760 C310 690 550 735 760 685 C1020 625 1210 670 1600 600 L1600 1000 L0 1000 Z" fill="#16251f"/>
  <g filter="url(#soft)" transform="translate(245 335)">
    <path d="M115 285 L470 80 L825 285 Z" fill="#2f2a27"/>
    <path d="M190 265 H760 V555 H190 Z" fill="#eee6db"/>
    <path d="M470 80 L935 265 V555 H760 V265 Z" fill="#d7cbb9"/>
    <path d="M260 150 L470 30 L955 230 L910 282 L470 102 L155 282 Z" fill="#1c1a19"/>
    <rect x="260" y="315" width="150" height="175" fill="url(#glass)"/>
    <rect x="465" y="300" width="225" height="255" fill="url(#glass)"/>
    <rect x="790" y="320" width="90" height="235" fill="#3f3328"/>
    <path d="M155 555 H980 V600 H155 Z" fill="#b8955b"/>
  </g>
  <rect x="0" y="0" width="1600" height="1000" fill="#000" opacity=".2"/>
</svg>
