<svg xmlns="http://www.w3.org/2000/svg" viewBox="0 0 900 1200" role="img" aria-label="Townhouse quarter">
  <rect width="900" height="1200" fill="#f1eee8"/>
  <rect y="810" width="900" height="390" fill="#314136"/>
  <g transform="translate(90 450)">
    <path d="M0 210 L120 90 L240 210 Z" fill="#2d2926"/>
    <rect x="28" y="198" width="184" height="270" fill="#d8c8b4"/>
    <rect x="75" y="270" width="90" height="130" fill="#748b94"/>
  </g>
  <g transform="translate(330 390)">
    <path d="M0 270 L150 115 L300 270 Z" fill="#2d2926"/>
    <rect x="34" y="252" width="232" height="345" fill="#cdbda8"/>
    <rect x="95" y="335" width="110" height="165" fill="#6f8791"/>
  </g>
  <g transform="translate(630 475)">
    <path d="M0 190 L90 95 L180 190 Z" fill="#2d2926"/>
    <rect x="22" y="180" width="136" height="260" fill="#ded4c4"/>
    <rect x="58" y="250" width="65" height="130" fill="#778e97"/>
  </g>
  <path d="M0 1000 C150 930 275 1010 420 945 C570 875 705 965 900 900 V1200 H0 Z" fill="#202f28"/>
</svg>
